<?xml version="1.0" encoding="utf-8"?>
<!-- Generator: Adobe Illustrator 27.9.0, SVG Export Plug-In . SVG Version: 6.00 Build 0)  -->
<svg version="1.1" id="Layer_1" xmlns="http://www.w3.org/2000/svg" xmlns:xlink="http://www.w3.org/1999/xlink" x="0px" y="0px"
	 viewBox="0 0 75 75" style="enable-background:new 0 0 75 75;" xml:space="preserve">
<style type="text/css">
	.st0{fill:none;stroke:#F2AB74;stroke-miterlimit:10;}
</style>
<path class="st0" d="M37.2,45.1l10.6-5.8 M43,15.8c0,5.4-4.4,9.8-9.8,9.8s-9.8-4.4-9.8-9.8S27.9,6,33.2,6S43,10.4,43,15.8z
	 M33.2,11.4c-2.4,0-4.4,2-4.4,4.4s2,4.4,4.4,4.4s4.4-2,4.4-4.4S35.6,11.4,33.2,11.4z M33.2,42.4c-2.4,0-4.4,2-4.4,4.4s2,4.4,4.4,4.4
	s4.4-2,4.4-4.4S35.6,42.4,33.2,42.4z M13.2,63.6c-2.4,0-4.4,2-4.4,4.4s2,4.4,4.4,4.4s4.4-2,4.4-4.4S15.8,63.6,13.2,63.6z M65.1,63.6
	c-2.4,0-4.4,2-4.4,4.4s2,4.4,4.4,4.4s4.4-2,4.4-4.4S67.5,63.6,65.1,63.6z M14.6,32.9c-2.4,0-4.4,2-4.4,4.4s2,4.4,4.4,4.4
	s4.4-2,4.4-4.4S17.1,32.9,14.6,32.9z M51.8,32.9c-2.4,0-4.4,2-4.4,4.4s2,4.4,4.4,4.4s4.4-2,4.4-4.4S54.1,32.9,51.8,32.9z M62.6,22.4
	c-2.4,0-4.4,2-4.4,4.4s2,4.4,4.4,4.4s4.4-2,4.4-4.4C67.1,24.4,65.1,22.4,62.6,22.4z M55.6,2.5c-2.2,0-4.1,1.9-4.1,4.1
	s1.9,4.1,4.1,4.1s4.1-1.9,4.1-4.1S57.9,2.5,55.6,2.5z M9.5,11.8c-2.2,0-4.1,1.9-4.1,4.1S7.2,20,9.5,20c2.3,0,4.1-1.9,4.1-4.1
	S11.8,11.8,9.5,11.8z M23.4,15.8h-9.9H23.4z M51.9,8.1l-9.6,4L51.9,8.1z M65,15.8l-6.4-6.4L65,15.8z M39.6,23.1l9.2,10.8L39.6,23.1z
	 M17.6,33.9l9.2-10.8L17.6,33.9z M63.4,64l-10-23L63.4,64z M17.6,68h43H17.6z M30.2,50L16.6,64.6L30.2,50z M33.2,25.5v16.9V25.5z
	 M55,60.6L36.2,49.9L55,60.6z M55,34.4l4.1-4.1L55,34.4z M5.5,55.6L12.2,41L5.5,55.6z M6.6,60.6l3.6,4.2L6.6,60.6z"/>
</svg>
