<svg width="579" height="329" viewBox="0 0 579 329" fill="none" xmlns="http://www.w3.org/2000/svg">
<path fill-rule="evenodd" clip-rule="evenodd" d="M48.6228 0.426356C46.0451 1.17899 45.8983 2.28302 45.2576 25.7176L44.8628 40.161L43.3132 41.4419C41.7648 42.7216 36.6716 45.503 35.8762 45.503C35.6258 45.503 35.7121 44.8742 36.0905 43.9479C37.4221 40.6861 36.0461 37.5991 30.0785 30.4606C25.1641 24.5819 25.4166 25.1221 25.8895 21.4946C26.3419 18.0215 25.9652 15.5345 24.8696 14.7636C23.7761 13.994 20.8037 13.7154 19.1825 14.2302C16.8088 14.9841 16.0604 16.2578 16.0632 19.5386C16.0645 21.0871 16.2582 23.0221 16.4938 23.8384C16.8828 25.1858 16.771 25.6333 15.2864 28.6819C12.7441 33.902 7.82845 40.8388 2.11666 47.2667C-0.152593 49.8206 -0.530527 51.2946 0.664142 52.9356C1.41343 53.9652 3.33313 55 4.49407 55C5.69697 55 7.62406 53.2696 11.1053 49.0644C14.6366 44.7983 17.3023 41.0339 19.9137 36.6249L21.7121 33.589L23.7696 36.0836C27.1558 40.1887 28.3981 42.3199 28.3981 44.0239C28.3981 46.0083 27.8944 46.8627 26.3645 47.4725C24.6784 48.1444 22.6436 47.7119 20.7769 46.2841C18.7964 44.7698 17.9414 44.8014 16.2253 46.4527C14.7522 47.8701 14.5001 49.047 15.3555 50.515C18.418 55.77 31.5976 55.6225 41.8664 50.2175L44.848 48.6481V49.8582C44.848 51.7334 45.909 53.7693 47.1168 54.211C48.9398 54.8781 52.0489 54.6902 53.13 53.8481C54.1002 53.0923 54.1014 53.0796 54.4316 40.5001C54.7993 26.5043 54.6266 27.2732 57.8018 25.5166C59.9176 24.3461 62.425 23.9737 63.7653 24.631C65.9971 25.7251 66.2311 26.9724 66.2344 37.7867C66.2377 48.3288 66.4614 49.9852 68.1779 52.1731C69.5885 53.9708 71.3778 54.6043 75.0461 54.6043C78.8514 54.6043 81.4176 53.7049 85.2319 51.0346C87.627 49.358 88.0176 49.1993 88.2224 49.819C88.7176 51.3211 91.4557 53.4334 93.7331 54.0705C97.8699 55.2275 102.296 54.1631 105.719 51.1881C107.361 49.7608 107.505 49.7098 107.931 50.405C108.754 51.7524 110.311 53.4279 111.13 53.8497C112.53 54.5711 115.905 54.8936 118.286 54.5343C121.123 54.1061 124.655 52.4267 127.086 50.35L128.925 48.7787L130.672 50.6484C133.05 53.194 135.889 54.3756 139.64 54.3811C143.248 54.3867 146.173 53.4461 148.496 51.5332C149.714 50.5301 150.327 50.2361 150.452 50.5958C150.801 51.604 153.013 53.7195 154.22 54.2011C154.974 54.5014 156.74 54.6304 158.849 54.5386C162.889 54.3625 165.56 53.3238 169.095 50.5534L171.403 48.7447L172.888 50.4545C175.01 52.8972 178.267 54.3404 181.74 54.3776C185.677 54.4195 187.228 53.9909 190.178 52.0472L192.803 50.318L193.775 51.733C195.372 54.0586 197.015 54.666 201.327 54.5263C204.473 54.4242 205.395 54.2284 207.477 53.2193C208.825 52.5664 210.941 51.1264 212.181 50.0192L214.435 48.0063L215.731 49.8214C220.471 56.461 231.155 56.5563 238.867 50.0279L241.039 48.1891L243.095 50.0394C245.72 52.4022 248.732 53.7207 252.569 54.1876C258.248 54.8781 263.87 53.6332 268.191 50.7287C270.539 49.1503 271.318 47.8369 270.887 46.1828C270.534 44.8291 268.663 42.7331 267.808 42.7331C267.432 42.7331 266.223 43.3492 265.123 44.1018C262.462 45.9221 259.682 46.7606 256.321 46.7566C253.245 46.7531 251.561 46.2711 250.124 44.9819C248.055 43.1252 248.139 42.9277 251.793 41.0786C256.047 38.9256 260.144 35.1584 261.793 31.8831C262.744 29.9948 263.006 28.8643 263.146 26.05C263.304 22.876 263.219 22.3616 262.211 20.3787C260.356 16.7311 256.445 15.104 251.35 15.8613C248.03 16.3544 245.924 17.3919 243.492 19.7321C239.474 23.5982 237.517 29.5675 237.83 36.9953C238.012 41.3018 238.001 41.3635 236.839 42.7916C234.816 45.2763 231.931 46.7697 228.729 46.9901C225.007 47.2465 223.608 46.554 222.273 43.7955C221.727 42.667 221.278 41.4165 221.276 41.0165C221.274 40.6164 222.486 38.8357 223.97 37.0594C227.178 33.2183 230.007 27.9079 231.173 23.5412C232.392 18.9752 232.712 10.5486 231.797 7.11936C230.898 3.75268 229.564 1.87307 227.338 0.835915C224.044 -0.69864 220.187 -0.0896467 217.369 2.41004C213.953 5.43997 212.453 11.0076 211.837 22.9477C211.595 27.6352 211.582 32.5958 211.805 35.5858C212.215 41.1067 212.21 41.1245 209.072 43.9601C206.636 46.1615 205.604 46.6901 203.743 46.6901C202.185 46.6901 201.982 46.5738 201.573 45.4441C201.048 43.9954 201.011 27.5763 201.499 12.4614C201.674 7.02043 201.674 2.19003 201.499 1.72705C200.588 -0.677272 193.493 -0.417687 192.541 2.05509C192.349 2.55527 192.084 5.96508 191.953 9.63289C191.823 13.3003 191.637 16.3773 191.54 16.4707C191.443 16.5641 190.057 16.4454 188.461 16.2068C181.382 15.1502 174.409 18.5533 171.396 24.5356C169.603 28.0958 169.044 30.9331 169.044 36.471V41.5182L167.708 42.9867C164.807 46.1733 160.222 47.8025 159.236 45.9976C158.388 44.4457 158.295 39.4835 158.783 21.6236C159.064 11.3178 159.175 2.42745 159.029 1.86752C158.481 -0.232102 152.655 -0.646408 150.677 1.27357C149.809 2.11682 149.733 2.62372 149.465 9.39468C149.308 13.3664 149.104 16.6163 149.012 16.6163C148.92 16.6163 147.593 16.4296 146.062 16.2008C137.292 14.8915 129.888 19.7507 127.222 28.5647C126.814 29.9145 126.555 32.6132 126.497 36.1251L126.408 41.5863L124.388 43.5767C122.265 45.6684 119.881 47.0858 118.487 47.0858C118.031 47.0858 117.346 46.6288 116.966 46.0701C116.336 45.1461 116.305 44.0061 116.618 33.5063C117.125 16.4826 117.172 17.8506 116.051 16.9768C114.567 15.821 110.248 15.9088 108.778 17.1248C107.731 17.9914 107.671 18.2573 107.336 23.5551C107.144 26.5945 106.977 32.3224 106.966 36.2838L106.946 43.4865L105.003 44.7725C103.525 45.7515 102.51 46.0974 100.759 46.2192C95.842 46.5611 95.2181 44.4663 95.5397 28.6854C95.6508 23.2445 95.5944 18.42 95.4151 17.9641C94.936 16.7465 92.9098 16.094 90.2643 16.3053C86.1966 16.6298 86.3167 16.2464 86.0659 29.6996L85.8504 41.278L84.3691 42.8621C81.9884 45.4077 79.8922 46.6901 78.1116 46.6901C75.5984 46.6901 75.5215 46.3225 75.6408 34.9103C75.7584 23.6291 75.4471 21.685 73.11 19.1243C69.3105 14.9603 61.7066 15.0984 56.5861 19.4243L54.9963 20.7677L55.2862 11.611L55.5761 2.45475L54.6327 1.42077C53.5429 0.225337 50.8414 -0.221418 48.6228 0.426356ZM224.748 8.84464C225.304 11.4868 225.344 12.8587 224.974 16.6163C224.5 21.4175 223.475 25.1779 221.698 28.6261L220.444 31.0597L220.646 22.3541C220.858 13.1598 221.464 8.93724 222.696 8.07064C223.613 7.42564 224.521 7.76792 224.748 8.84464ZM254.636 23.9987C255.465 24.9618 255.223 28.1801 254.161 30.29C253.261 32.0786 250.419 34.606 247.897 35.8608L246.694 36.4599L246.968 33.3639C247.367 28.8469 248.242 26.2 249.846 24.6571C251.398 23.1637 253.65 22.8543 254.636 23.9987ZM148.812 24.3734C148.97 24.5685 149.006 29.1801 148.893 34.621L148.687 44.5137L146.426 45.6308C142.577 47.531 138.925 46.6557 137.258 43.4335C136.181 41.3509 135.621 37.425 135.908 33.9594C136.336 28.7768 137.756 26.0263 140.767 24.5487C142.221 23.8352 143.03 23.7173 145.522 23.8538C147.174 23.9445 148.655 24.1783 148.812 24.3734ZM190.608 24.1249L191.663 24.5107L191.66 34.3144L191.657 44.118L190.323 44.9652C187.033 47.0546 183.223 47.1321 181.022 45.1536C179.093 43.4196 178.37 40.3655 178.585 34.8545C178.722 31.3454 178.963 29.8393 179.614 28.4421C180.483 26.5751 182.699 24.5356 184.36 24.0754C185.818 23.671 189.446 23.6999 190.608 24.1249Z" fill="white"/>
<path d="M49.8855 325.279H3V108.816H105.099C114.97 108.816 123.915 110.47 131.935 113.778C139.955 117.086 146.741 121.841 152.293 128.043C158.051 134.039 162.472 141.275 165.557 149.752C168.641 158.228 170.184 167.635 170.184 177.972C170.184 192.651 166.893 205.47 160.313 216.427C153.938 227.385 144.17 235.344 131.01 240.306L173.268 325.279H121.139L83.5073 245.888H49.8855V325.279ZM99.2386 206.193C106.23 206.193 111.68 204.436 115.587 200.921C119.7 197.2 121.756 191.824 121.756 184.795V171.15C121.756 164.12 119.7 158.848 115.587 155.334C111.68 151.612 106.23 149.752 99.2386 149.752H49.8855V206.193H99.2386Z" fill="white"/>
<path d="M192.956 162.466H238.608V325.279H192.956V162.466Z" fill="white"/>
<path d="M365.116 297.988H363.574C362.34 302.33 360.387 306.465 357.713 310.393C355.04 314.114 351.75 317.422 347.843 320.317C344.141 323.004 339.823 325.072 334.888 326.519C330.158 328.173 325.223 329 320.082 329C299.518 329 283.992 321.764 273.505 307.292C263.017 292.613 257.773 271.421 257.773 243.717C257.773 216.014 263.017 194.925 273.505 180.453C283.992 165.981 299.518 158.745 320.082 158.745C330.569 158.745 339.823 161.639 347.843 167.428C356.068 173.217 361.312 180.66 363.574 189.757H365.116V95.791H410.768V325.279H365.116V297.988ZM335.196 291.786C343.833 291.786 350.927 289.718 356.48 285.583C362.238 281.242 365.116 275.349 365.116 267.907V219.838C365.116 212.395 362.238 206.607 356.48 202.472C350.927 198.13 343.833 195.959 335.196 195.959C326.559 195.959 319.362 199.06 313.604 205.263C308.052 211.258 305.276 219.425 305.276 229.762V257.983C305.276 268.32 308.052 276.59 313.604 282.792C319.362 288.788 326.559 291.786 335.196 291.786Z" fill="white"/>
<path d="M505.587 329C493.249 329 482.247 327.036 472.582 323.108C462.917 318.973 454.692 313.287 447.906 306.051C441.325 298.608 436.287 289.615 432.791 279.071C429.501 268.527 427.856 256.742 427.856 243.717C427.856 230.899 429.501 219.321 432.791 208.984C436.082 198.44 440.914 189.447 447.289 182.004C453.869 174.561 461.889 168.876 471.349 164.947C480.808 160.812 491.604 158.745 503.737 158.745C517.103 158.745 528.516 161.019 537.975 165.568C547.64 170.116 555.454 176.215 561.418 183.865C567.587 191.514 572.008 200.404 574.682 210.535C577.561 220.459 579 230.899 579 241.857V255.502H475.05V257.983C475.05 268.734 477.929 277.314 483.687 283.723C489.445 289.925 498.493 293.026 510.831 293.026C520.29 293.026 528.002 291.166 533.965 287.444C539.929 283.516 545.481 278.864 550.622 273.489L573.448 302.02C566.25 310.496 556.791 317.112 545.07 321.867C533.554 326.622 520.393 329 505.587 329ZM504.662 192.548C495.408 192.548 488.108 195.649 482.761 201.851C477.62 207.847 475.05 215.91 475.05 226.041V228.522H531.806V225.731C531.806 215.807 529.544 207.847 525.02 201.851C520.702 195.649 513.916 192.548 504.662 192.548Z" fill="white"/>
<path d="M215.5 146C206.256 146 199.477 143.937 195.163 139.81C191.054 135.476 189 130.008 189 123.405V116.595C189 109.992 191.054 104.627 195.163 100.5C199.477 96.1667 206.256 94 215.5 94C224.744 94 231.421 96.1667 235.529 100.5C239.843 104.627 242 109.992 242 116.595V123.405C242 130.008 239.843 135.476 235.529 139.81C231.421 143.937 224.744 146 215.5 146Z" fill="#AEFFF7"/>
</svg>
